PathFileType	4	(X/Y/Z)	Sub_1_bilateral_squat02_.centers_.trc
DataRate	CameraRate	NumFrames	NumMarkers	Units	OrigDataRate	OrigDataStartFrame	OrigNumFrames
60.0	60.0	4	120	mm	100.0	90	597
Frame#	Time		Back_Left_Head		Back_Right_Head		C7		CenterHead		COP_Projection		COP_Projection_GroundY		F_LHIP		F_RHIP		Front_Left_Head		Front_Right_Head		Girdle_Center		Head		JC.L.Elbow		JC.L.Hand		JC.L.Wrist		JC.R.Elbow		JC.R.Hand		JC.R.Wrist		JC_L.Hip		JC_R.Hip		L.Ankle.Center		L.Ankle.Lateral		L.Elbow		L.Hand		L.Heel		L.Hip		L.Iliac.Crest		L.Knee.Center		L.Knee.Lateral		L.PSIS		L.Shank.Front		L.Shank.Rear		L.Shank.Upper		L.Shoulder		L.Thigh.Front		L.Thigh.Rear		L.Thigh.Upper		L.Toe		L.Wrist.Radial		L.Wrist.Ulnar		LAB_Origin		LAB_X		LAB_Y		LAB_Z		LDFA midpoint		LEFT_FOOT_BORDER1		LEFT_FOOT_BORDER2		LEFT_FOOT_BORDER3		LForearmX		LForearmY		LForearmZ		LHandX		LHandY		LHandZ		LHIP		LLowerArmX		LLowerArmY		LLowerArmZ		LMID_MALLEOLI_V		LPFA midpoint		mid_ASIS		Mid_ASIS_Projection		Mid_ASIS_Projection_Lateral		Mid_ASIS_Projection_LateralZ		North_Virtual_Origin		Offset		Pelvis.Center		Pelvis_Center		PelvisX		PelvisY		PelvisZ		R.Ankle.Center		R.Ankle.Lateral		R.Elbow		R.Hand		R.Heel		R.Hip		R.Iliac.Crest		R.Knee.Center		R.Knee.Lateral		R.Shank.Front		R.Shank.Rear		R.Shank.Upper		R.Shoulder		R.Thigh.Front		R.Thigh.Rear		R.Thigh.Upper		R.Toe		R.Wrist.Radial		R.Wrist.Ulnar		RDFA midpoint		RForearmX		RForearmY		RForearmZ		RHandX		RHandY		RHandZ		RHIP		RIGHT_FOOT_BORDER1		RIGHT_FOOT_BORDER2		RIGHT_FOOT_BORDER3		RLowerArmX		RLowerArmY		RLowerArmZ		RMID_MALLEOLI_V		RPFA midpoint		V.Sacral		v3d_lab_lat_distal		v3d_lab_lat_prox		v3d_lab_med_distal		v3d_lab_med_prox		V_L.Hip.skin		V_R.Hip.skin		V_V.Sacral.skin		Virtual_Lab_Origin		X.Shell.Lower.Shank.Left		X.Shell.Lower.Shank.Right		X.Shell.Lower.Thigh.Left		X.Shell.Lower.Thigh.Right		Z_Virtual_Lab_Origin
			X1	Y1	Z1	X2	Y2	Z2	X3	Y3	Z3	X4	Y4	Z4	X5	Y5	Z5	X6	Y6	Z6	X7	Y7	Z7	X8	Y8	Z8	X9	Y9	Z9	X10	Y10	Z10	X11	Y11	Z11	X12	Y12	Z12	X13	Y13	Z13	X14	Y14	Z14	X15	Y15	Z15	X16	Y16	Z16	X17	Y17	Z17	X18	Y18	Z18	X19	Y19	Z19	X20	Y20	Z20	X21	Y21	Z21	X22	Y22	Z22	X23	Y23	Z23	X24	Y24	Z24	X25	Y25	Z25	X26	Y26	Z26	X27	Y27	Z27	X28	Y28	Z28	X29	Y29	Z29	X30	Y30	Z30	X31	Y31	Z31	X32	Y32	Z32	X33	Y33	Z33	X34	Y34	Z34	X35	Y35	Z35	X36	Y36	Z36	X37	Y37	Z37	X38	Y38	Z38	X39	Y39	Z39	X40	Y40	Z40	X41	Y41	Z41	X42	Y42	Z42	X43	Y43	Z43	X44	Y44	Z44	X45	Y45	Z45	X46	Y46	Z46	X47	Y47	Z47	X48	Y48	Z48	X49	Y49	Z49	X50	Y50	Z50	X51	Y51	Z51	X52	Y52	Z52	X53	Y53	Z53	X54	Y54	Z54	X55	Y55	Z55	X56	Y56	Z56	X57	Y57	Z57	X58	Y58	Z58	X59	Y59	Z59	X60	Y60	Z60	X61	Y61	Z61	X62	Y62	Z62	X63	Y63	Z63	X64	Y64	Z64	X65	Y65	Z65	X66	Y66	Z66	X67	Y67	Z67	X68	Y68	Z68	X69	Y69	Z69	X70	Y70	Z70	X71	Y71	Z71	X72	Y72	Z72	X73	Y73	Z73	X74	Y74	Z74	X75	Y75	Z75	X76	Y76	Z76	X77	Y77	Z77	X78	Y78	Z78	X79	Y79	Z79	X80	Y80	Z80	X81	Y81	Z81	X82	Y82	Z82	X83	Y83	Z83	X84	Y84	Z84	X85	Y85	Z85	X86	Y86	Z86	X87	Y87	Z87	X88	Y88	Z88	X89	Y89	Z89	X90	Y90	Z90	X91	Y91	Z91	X92	Y92	Z92	X93	Y93	Z93	X94	Y94	Z94	X95	Y95	Z95	X96	Y96	Z96	X97	Y97	Z97	X98	Y98	Z98	X99	Y99	Z99	X100	Y100	Z100	X101	Y101	Z101	X102	Y102	Z102	X103	Y103	Z103	X104	Y104	Z104	X105	Y105	Z105	X106	Y106	Z106	X107	Y107	Z107	X108	Y108	Z108	X109	Y109	Z109	X110	Y110	Z110	X111	Y111	Z111	X112	Y112	Z112	X113	Y113	Z113	X114	Y114	Z114	X115	Y115	Z115	X116	Y116	Z116	X117	Y117	Z117	X118	Y118	Z118	X119	Y119	Z119	X120	Y120	Z120

90	1.48333	-132.93495	1514.74065	-71.66995	15.50342	1520.86454	-82.94540	-64.52703	1382.64645	-60.43806	-58.39759	1543.77860	-140.26556	-65.31226	0.00000	-182.87541	-65.31226	0.00000	-282.87540	-128.18412	875.99320	-215.34970	5.47758	875.98340	-215.41547	-132.29859	1566.69271	-197.58572	-4.43842	1569.93076	-205.55551	-65.12675	1400.47653	-113.11701	-58.27875	1635.16900	-100.30370	-209.49507	1349.46297	-422.78844	-180.87329	1468.35036	-687.82939	-186.35635	1421.98916	-629.39510	79.66606	1344.06468	-424.48707	49.80459	1424.58664	-698.53081	49.18868	1437.43613	-625.74938	-119.67351	875.88400	-216.53625	-2.66904	875.52561	-217.39778	-185.52174	76.59798	-142.11736	-219.20366	72.42993	-129.24567	-209.49507	1349.46297	-422.78844	-182.23920	1441.78508	-695.82982	-185.10594	46.48847	-77.16932	-165.84443	939.75994	-270.53336	-213.72423	959.86367	-216.66569	-162.93215	461.53193	-147.63809	-223.11513	469.71335	-151.30561	-114.85899	970.16355	-95.03756	-239.32980	221.88133	-146.43790	-241.12009	222.86996	-97.12167	-247.54132	263.63145	-116.99660	-186.60996	1406.63154	-113.29634	-245.62925	609.70448	-189.40624	-239.41341	620.60459	-132.14710	-241.12212	648.73928	-168.19904	-210.74954	39.83127	-288.84518	-156.40877	1421.30446	-632.23446	-216.30394	1422.67398	-626.55567	0.00000	0.00000	-0.00000	999.99994	0.00000	-0.00000	0.00000	0.00000	-999.99994	0.00000	999.99994	-0.00000	-186.35635	1421.98916	-629.39510	-210.26939	41.04006	-289.07770	-221.05605	73.85591	-130.52040	-182.79880	48.36884	-76.29520	-136.70485	1417.71979	-625.33309	-183.68826	1469.00551	-612.59189	-191.61072	1405.51985	-582.47862	-131.01455	1465.42962	-685.46839	-180.05483	1507.47713	-656.70983	-184.53878	1437.35733	-648.76539	-210.45560	863.82148	-298.98578	-166.39992	1420.69234	-628.93516	-213.63577	1469.69021	-609.75247	-214.73237	1405.77602	-579.52388	-185.70463	79.02336	-141.84669	-197.92572	1385.72607	-526.09177	-61.37615	939.43999	-271.30260	-61.37615	0.00000	-271.30260	-65.31226	0.00000	-271.30260	-65.31226	100.00000	-271.30260	0.00000	0.00000	999.99994	-174.91848	1320.16908	-46.35428	-61.32395	940.43372	-264.62635	-65.31226	952.61192	-182.87541	38.67286	940.12749	-265.36268	-56.72311	925.71570	-363.43026	-61.12945	1039.34358	-279.35107	79.97706	77.97948	-144.42902	113.96003	75.65743	-129.94093	79.66606	1344.06468	-424.48707	46.31093	1451.22642	-692.91118	81.31272	44.10138	-78.52316	43.09213	939.11993	-272.07183	86.80608	951.54364	-215.20748	34.36576	462.12751	-161.67415	94.20416	467.91024	-167.09765	124.56009	255.44947	-135.91110	118.20646	245.15618	-86.90778	133.89342	279.99563	-104.45567	56.35646	1394.32152	-112.93769	119.17487	635.02156	-206.07881	112.89092	616.65761	-146.26512	126.46032	654.98542	-170.03547	115.43397	43.74715	-283.47386	18.86409	1433.35137	-625.23784	79.51326	1441.52089	-626.26092	49.18868	1437.43613	-625.74938	-0.02159	1429.40779	-622.02202	54.84970	1392.70407	-647.35921	55.99318	1416.58973	-580.81470	0.54564	1416.07911	-697.44565	58.37088	1376.08862	-689.89592	49.38792	1433.27943	-649.29399	-4.39779	874.24970	-226.21443	115.90400	43.02481	-284.30322	113.67842	75.85858	-128.14270	82.68566	43.28702	-78.74244	29.83478	1436.40865	-628.69249	85.17419	1396.78871	-647.87074	79.54736	1419.77476	-581.23753	79.21622	78.18328	-143.80422	64.42736	1390.75041	-525.11826	-69.24838	965.78381	-94.44823	0.00000	-1.00000	-1.00000	0.00000	0.00000	-1.00000	0.00000	-1.00000	1.00000	0.00000	0.00000	1.00000	-165.79222	940.75378	-263.85711	43.14433	940.11377	-265.39558	-68.93782	964.79035	-101.11749	0.00000	0.00000	-0.00000	-246.25424	195.43073	-126.69114	126.04787	211.15669	-114.84381	-239.41421	580.83969	-150.22476	115.11015	583.51173	-182.42154	0.00000	999.99994	-0.00000
91	1.50000	-133.14678	1515.09731	-72.37041	15.28371	1521.21673	-83.51561	-64.66106	1383.07189	-61.13879	-58.56270	1544.14481	-140.89901	-65.27830	0.00000	-182.36636	-65.27830	0.00000	-282.36635	-128.26129	876.14110	-214.55320	5.39981	876.08166	-214.94882	-132.40911	1567.07294	-198.28241	-4.54884	1570.27878	-206.12057	-65.28190	1400.75484	-113.73082	-58.46182	1635.54974	-100.93824	-209.54175	1349.53806	-423.40670	-180.87904	1468.60988	-688.41402	-186.35672	1422.14574	-630.01584	79.70877	1344.48119	-424.97298	49.74334	1425.15637	-699.05167	49.11854	1437.94409	-626.28787	-119.81096	876.10861	-215.74264	-2.81896	875.59338	-216.88989	-185.48576	76.55579	-142.01245	-219.16176	72.43370	-129.27677	-209.54175	1349.53806	-423.40670	-182.18799	1442.03952	-696.45239	-185.10801	46.51156	-77.18452	-166.02542	939.96804	-269.70888	-213.86432	960.16185	-216.02671	-162.62959	461.60694	-148.40481	-222.93461	469.72928	-152.07427	-114.64691	970.57051	-94.44463	-239.14436	221.88547	-146.73721	-241.02724	222.96023	-97.44772	-247.37262	263.70090	-117.40101	-186.78143	1406.81617	-113.98275	-245.57229	609.75539	-189.80713	-239.39634	620.47681	-132.55255	-241.14028	648.72993	-168.50592	-210.74493	39.84980	-288.86152	-156.37637	1421.50819	-632.79038	-216.33709	1422.78341	-627.24130	0.00000	0.00000	-0.00000	999.99994	0.00000	-0.00000	0.00000	0.00000	-999.99994	0.00000	999.99994	-0.00000	-186.35672	1422.14574	-630.01584	-211.00949	40.75423	-288.90921	-221.01999	73.78128	-130.34479	-182.36480	48.51880	-76.29694	-136.70034	1417.97819	-625.90821	-183.80103	1469.16555	-613.20511	-191.62079	1405.66048	-583.10612	-131.01814	1465.77998	-685.98869	-180.17653	1507.70037	-657.24604	-184.53921	1437.56268	-649.39254	-210.80456	864.05046	-297.95228	-166.42708	1420.90653	-629.57963	-213.78134	1469.80321	-610.43058	-214.76918	1405.88343	-580.21016	-185.62631	79.03968	-141.82381	-197.94924	1385.84190	-526.71129	-61.56828	939.50807	-270.73321	-61.56828	0.00000	-270.73321	-65.27830	0.00000	-270.73321	-65.27830	100.00000	-270.73321	0.00000	0.00000	999.99994	-174.95073	1320.50247	-46.95032	-61.49841	940.51074	-264.05847	-65.27830	952.79624	-182.36636	38.49578	940.07043	-265.03900	-57.14721	925.65387	-362.85285	-61.20867	1039.40028	-278.91691	79.95322	77.98270	-144.43660	113.94495	75.69541	-129.96691	79.70877	1344.48119	-424.97298	46.21038	1451.77634	-693.41314	81.29966	44.11910	-78.54723	42.88887	939.04804	-271.75752	86.82732	951.51692	-215.06894	34.34455	462.09687	-161.81380	94.14960	467.92609	-167.10861	124.49365	255.45701	-135.95972	118.18787	245.16665	-86.96226	133.85014	280.01173	-104.50216	56.21764	1394.69362	-113.47888	119.02923	635.06505	-206.12048	112.81688	616.65329	-146.29967	126.34430	655.00625	-170.02989	115.41007	43.75497	-283.48799	18.75676	1433.80446	-625.76805	79.48033	1442.08372	-626.80764	49.11854	1437.94409	-626.28787	-0.08112	1429.84574	-622.57159	54.84483	1393.22961	-647.91721	55.94517	1417.08661	-581.36168	0.49580	1416.58280	-697.96778	58.37472	1376.66303	-690.45519	49.32050	1433.81055	-649.80809	-4.57682	874.30234	-225.69945	115.67832	43.14572	-284.31506	113.74831	75.91477	-128.13701	82.76929	43.37910	-78.70449	29.80934	1436.90655	-629.25491	85.20651	1397.36922	-648.43697	79.53128	1420.31645	-581.79446	79.18997	78.27857	-143.79677	64.41366	1391.21264	-525.63043	-68.98832	966.08453	-93.99953	0.00000	-1.00000	-1.00000	0.00000	0.00000	-1.00000	0.00000	-1.00000	1.00000	0.00000	0.00000	1.00000	-165.95555	940.97072	-263.03413	42.95874	940.05077	-265.08277	-68.69461	965.08172	-100.66815	0.00000	0.00000	-0.00000	-246.13413	195.46711	-126.96039	126.01607	211.16496	-114.90597	-239.34086	580.79204	-150.74080	115.00588	583.52855	-182.43473	0.00000	999.99994	-0.00000
92	1.51667	-133.39598	1515.50846	-73.28388	15.03012	1521.66663	-84.22099	-64.76721	1383.64713	-62.08374	-58.77935	1544.62004	-141.69140	-65.25524	0.00000	-181.66908	-65.25524	0.00000	-281.66907	-128.39770	876.32544	-213.51948	5.26172	876.20865	-214.28920	-132.58882	1567.57346	-199.16181	-4.68292	1570.86328	-206.86163	-65.40815	1401.18517	-114.62242	-58.75692	1635.98080	-101.64665	-209.62195	1349.64768	-424.22490	-180.78486	1468.80106	-689.15573	-186.37651	1422.29825	-630.81157	79.74874	1344.98246	-425.77989	49.66268	1425.78865	-699.82424	49.09693	1438.50069	-627.06476	-120.00618	876.39355	-214.76577	-3.07900	875.73520	-216.16133	-185.42174	76.51937	-141.91725	-219.15968	72.44066	-129.30923	-209.62195	1349.64768	-424.22490	-182.07885	1442.24037	-697.21602	-185.10361	46.49151	-77.17437	-166.23490	940.17034	-268.73183	-213.93298	960.56981	-214.99845	-162.34553	461.69537	-149.31102	-222.75863	469.73422	-152.88390	-114.36059	971.05737	-93.64848	-238.99093	221.88106	-147.02150	-240.89639	223.04273	-97.76092	-247.20929	263.76157	-117.80041	-186.90740	1407.13091	-114.91795	-245.56404	609.83743	-190.16648	-239.41246	620.34553	-132.89383	-241.20492	648.74481	-168.71775	-210.74961	39.85452	-288.84499	-156.43660	1421.67962	-633.57959	-216.31642	1422.91682	-628.04348	0.00000	0.00000	-0.00000	999.99994	0.00000	-0.00000	0.00000	0.00000	-999.99994	0.00000	999.99994	-0.00000	-186.37651	1422.29825	-630.81157	-210.83962	40.66110	-288.89337	-221.01980	73.75467	-130.35373	-182.46582	48.46516	-76.24643	-136.72008	1418.15276	-626.68201	-183.85001	1469.31657	-613.99225	-191.65430	1405.80320	-583.90677	-130.92915	1465.94944	-686.65044	-180.11831	1507.86621	-657.95523	-184.52167	1437.72399	-650.16532	-211.18470	864.25575	-296.71091	-166.40420	1421.06002	-630.35038	-213.78993	1469.93520	-611.22425	-214.77171	1406.01052	-581.01385	-185.64065	78.97073	-141.88597	-197.99923	1385.97300	-527.51819	-61.83562	939.58248	-269.97788	-61.83562	0.00000	-269.97788	-65.25524	-0.00000	-269.97788	-65.25524	100.00000	-269.97788	0.00000	0.00000	999.99994	-174.93824	1321.01412	-47.65082	-61.75027	940.59802	-263.30525	-65.25524	953.03969	-181.66908	38.24096	940.03499	-264.49871	-57.72545	925.54456	-362.08368	-61.37329	1039.45820	-278.35580	79.96938	77.97949	-144.55672	113.93898	75.72389	-129.99721	79.74874	1344.98246	-425.77989	46.15905	1452.39971	-694.15808	81.31029	44.13743	-78.54064	42.56365	938.99464	-271.22391	86.82623	951.52841	-214.83928	34.36226	462.04975	-161.93589	94.07594	467.94837	-167.19914	124.43491	255.47406	-136.05132	118.19902	245.16540	-87.05787	133.81799	280.01648	-104.59743	56.09110	1395.23949	-114.32689	118.88065	635.14184	-206.07665	112.75427	616.67265	-146.24658	126.21832	655.03545	-169.96513	115.41814	43.73417	-283.49648	18.71354	1434.38459	-626.52074	79.48032	1442.61673	-627.60873	49.09693	1438.50069	-627.06476	-0.10731	1430.44612	-623.31407	54.76739	1393.78396	-648.70394	55.93716	1417.63120	-582.14614	0.40793	1417.25959	-698.71712	58.25469	1377.27872	-691.28213	49.27971	1434.39368	-650.57181	-4.86374	874.39893	-224.91652	115.62774	43.17495	-284.34037	113.81311	75.95738	-128.16373	82.70761	43.54182	-78.73178	29.80294	1437.48636	-630.02450	85.15073	1397.89994	-649.24790	79.54018	1420.84323	-582.59859	79.12130	78.39586	-143.81200	64.42283	1391.74155	-526.42232	-68.67486	966.49690	-93.36027	0.00000	-1.00000	-1.00000	0.00000	0.00000	-1.00000	0.00000	-1.00000	1.00000	0.00000	0.00000	1.00000	-166.14954	941.18585	-262.05921	42.64901	940.01016	-264.55128	-68.40318	965.48081	-100.02782	0.00000	0.00000	-0.00000	-246.03687	195.51656	-127.22626	125.98329	211.17455	-115.01338	-239.27115	580.73952	-151.21433	114.90436	583.57590	-182.44169	0.00000	999.99994	-0.00000
93	1.53333	-133.62039	1515.92555	-74.35455	14.78840	1522.21155	-85.17280	-64.84638	1384.34603	-63.19835	-58.96374	1545.17509	-142.67010	-65.21993	0.00000	-180.76436	-65.21993	0.00000	-280.76435	-128.53482	876.58689	-212.27220	5.12186	876.41068	-213.42012	-132.71588	1568.13865	-200.16742	-4.85847	1571.57239	-207.75073	-65.51328	1401.70121	-115.78852	-59.09168	1636.49094	-102.45265	-209.79833	1349.85020	-425.26740	-180.67021	1468.98355	-690.19487	-186.37207	1422.48186	-631.81296	79.80644	1345.61954	-426.80786	49.58268	1426.41425	-700.81544	49.09712	1439.09892	-628.04820	-120.16688	876.74344	-213.58553	-3.32786	875.92242	-215.30591	-185.30703	76.52978	-141.92336	-219.15312	72.44007	-129.32909	-209.79833	1349.85020	-425.26740	-181.97987	1442.40829	-698.25196	-185.10492	46.50032	-77.15445	-166.42628	940.44813	-267.49470	-214.07942	961.02188	-213.84616	-162.16569	461.79087	-150.20277	-222.59546	469.76538	-153.82893	-114.02227	971.57485	-92.62295	-238.83314	221.88058	-147.39627	-240.82055	223.13502	-98.09951	-247.09263	263.83032	-118.25819	-186.96786	1407.50674	-116.10578	-245.61289	609.99339	-190.37823	-239.39631	620.24593	-133.08638	-241.26896	648.82052	-168.79090	-210.74860	39.85969	-288.85590	-156.44160	1421.83323	-634.53854	-216.30256	1423.13042	-629.08726	0.00000	0.00000	-0.00000	999.99994	0.00000	-0.00000	0.00000	0.00000	-999.99994	0.00000	999.99994	-0.00000	-186.37207	1422.48186	-631.81296	-209.95067	40.84464	-288.99902	-220.98374	73.81142	-130.48992	-182.95474	48.21234	-76.15702	-136.72132	1418.29940	-627.65236	-183.82120	1469.49782	-614.99049	-191.69153	1405.98917	-584.91206	-130.82008	1466.07910	-687.63975	-179.99221	1508.05771	-659.00582	-184.47878	1437.92273	-651.19856	-211.56711	864.55065	-295.21158	-166.39023	1421.23607	-631.36115	-213.75177	1470.14645	-612.26480	-214.80175	1406.22148	-582.05716	-185.70893	78.84564	-142.02206	-198.08518	1386.16608	-528.54017	-62.10572	939.71507	-269.03075	-62.10572	0.00000	-269.03075	-65.21993	0.00000	-269.03075	-65.21993	100.00000	-269.03075	0.00000	0.00000	999.99994	-174.94985	1321.71988	-48.58514	-62.00029	940.74154	-262.36010	-65.21993	953.31900	-180.76436	37.98638	940.03890	-263.83233	-58.31749	925.51844	-361.12593	-61.52981	1039.57596	-277.57625	79.97432	77.94891	-144.55873	113.94694	75.71694	-129.98871	79.80644	1345.61954	-426.80786	46.09537	1453.02538	-695.13527	81.30892	44.15000	-78.53641	42.21484	938.98200	-270.56680	86.81302	951.58290	-214.39624	34.36774	462.00024	-162.08798	93.99937	467.96758	-167.27061	124.36969	255.45561	-136.16554	118.22790	245.16792	-87.15038	133.79814	280.01613	-104.71908	55.94130	1395.89567	-115.47124	118.74653	635.22805	-205.93708	112.69265	616.66088	-146.10760	126.10545	655.05623	-169.77204	115.41434	43.70503	-283.51976	18.77012	1435.00798	-627.50166	79.42412	1443.18990	-628.59478	49.09712	1439.09892	-628.04820	-0.10830	1431.06358	-624.27200	54.73996	1394.37673	-649.68348	55.95167	1418.23368	-583.12992	0.32481	1417.90935	-699.66163	58.15908	1377.89676	-692.30073	49.25400	1435.00048	-651.55930	-5.16321	874.53024	-224.00895	115.66767	43.17940	-284.37924	113.84513	76.01842	-128.21456	82.55776	43.74930	-78.80156	29.74364	1438.07279	-630.97487	85.06699	1398.46771	-650.23005	79.50941	1421.42418	-583.58087	79.02125	78.53750	-143.83713	64.45178	1392.35923	-527.42802	-68.33414	966.92292	-92.49797	0.00000	-1.00000	-1.00000	0.00000	0.00000	-1.00000	0.00000	-1.00000	1.00000	0.00000	0.00000	1.00000	-166.32085	941.47460	-260.82405	42.32028	940.00843	-263.89614	-68.08555	965.89536	-99.16466	0.00000	0.00000	-0.00000	-245.95146	195.56475	-127.53361	125.96977	211.17268	-115.08905	-239.23243	580.73367	-151.61545	114.81047	583.62353	-182.35724	0.00000	999.99994	-0.00000
